<?xml version="1.0" encoding="UTF-8" standalone="no"?>
<svg xmlns:dc="http://purl.org/dc/elements/1.1/" xmlns:cc="http://creativecommons.org/ns#" xmlns:rdf="http://www.w3.org/1999/02/22-rdf-syntax-ns#" xmlns:svg="http://www.w3.org/2000/svg" xmlns="http://www.w3.org/2000/svg" viewBox="0 0 1678.72 571.32001" height="571.32001" width="1678.72" xml:space="preserve" id="svg2" version="1.1">
  <metadata id="metadata8"/>
  <defs id="defs6"/>
  <g transform="matrix(1.3333333,0,0,-1.3333333,0,571.32)" id="g10">
    <g transform="scale(0.1)" id="g12">
      <path id="path14" style="fill:#000000;fill-opacity:1;fill-rule:evenodd;stroke:none" d="m 411.316,2821.64 c -164.007,-2.61 -269.894,-95.65 -276.988,-355.62 -2.625,-96.38 -5.16,-174.39 -7.383,-238.55 C 110.348,2170.46 74.6563,2133.45 0,2121.43 c 114.012,-29.32 126.617,-41.75 126.086,-404.14 -0.418,-285.04 60.273,-544.04 235.387,-586.89 79.441,-19.43 272.609,-4.79 358.5,83.51 94.465,97.13 91.941,307.88 -9.11,430.51 77.309,-131.97 28.981,-294.26 -37.972,-350.44 -73.77,-61.9 -173.379,-88.39 -262.137,-37.78 -96.621,55.1 -103.145,172.98 -99.234,435.59 42.761,-20.13 89.718,-31.56 137.683,-32.22 170.547,-2.36 329.629,81.52 340.856,323.41 9.644,207.77 10.839,254.27 8.726,480.55 -2.316,247.79 -134.637,347.91 -310.176,358.98 -13.222,0.83 -31.121,-0.11 -77.293,-0.87 z m 39.422,-48.03 c 112.16,-0.53 147.907,-143.95 147.75,-266.84 -0.281,-222.79 -2.285,-426.6 -7.285,-591.68 -4.898,-161.58 -79.449,-209.92 -160.027,-205.18 -92.028,5.41 -119.766,85.83 -120.52,207.68 -1.031,166.02 0.805,371.18 4.024,582.09 1.754,116.62 -2.977,274.59 136.058,273.93"/>
      <path id="path16" style="fill:#000000;fill-opacity:1;fill-rule:evenodd;stroke:none" d="m 1129.86,4284.93 c -48.15,-235.21 -220.27,-346.29 -384.29,-438.08 130.547,48.99 164.02,-52.78 157.821,-220.14 -6.2,-167.36 -0.227,-967.38 -4.602,-1215.29 L 886.707,1725.1 c 0,0 -30.328,-282.38 85.145,-359.36 65.088,-43.39 123.628,-44.5 174.598,-42.19 78.07,3.55 95.34,26.58 140.46,39.79 42.31,12.39 102.72,11 200.59,-21.18 155.38,-51.11 228.39,-9.45 318.32,48.99 68.7,44.64 141.54,-49.57 203.94,-37.58 -8.31,1.18 -97.37,17.54 -72.68,166.16 24.03,144.56 16.41,210.48 -96.36,355.52 135.58,-260.37 -39.94,-433.84 -220.14,-435.11 -139.7,-0.99 -183.8,90.42 -170.76,456.11 43.39,-20.83 91.22,-32.69 140.08,-33.37 170.55,-2.35 329.63,81.52 340.86,323.41 9.64,207.77 10.83,254.28 8.72,480.56 -2.32,247.79 -134.73,348 -310.27,359.07 -14,0.88 -30.23,1.74 -75.42,1.02 -164.01,-2.63 -271.68,-97.64 -278.76,-357.6 -2.83,-103.47 -5.64,-185.75 -7.96,-252.46 -16.81,-56.08 -52.44,-92.5 -126.37,-104.41 114.01,-29.32 126.61,-41.75 126.08,-404.14 -0.28,-194.67 21.05,-367.56 90.42,-471.25 -80.12,-13.31 -162.56,-102.63 -244.31,-4.8 -39.76,47.6 -52.88,144.29 -53.69,285.35 -1.82,314.91 10.23,636.46 4.31,1112.41 -7.03,570.48 21.77,961.8 66.35,1454.89 z m 461.57,-1308 c 112.16,0.85 147.82,-143.96 147.66,-266.84 -0.29,-222.79 -2.19,-426.6 -7.19,-591.68 -4.9,-161.58 -79.45,-209.93 -160.03,-205.19 -92.03,5.41 -119.76,85.83 -120.52,207.68 -1.03,166.02 0.81,371.18 4.03,582.09 1.73,115.72 18.76,273.04 136.05,273.94"/>
      <path id="path18" style="fill:#000000;fill-opacity:1;fill-rule:evenodd;stroke:none" d="m 2029.89,3226.89 c -81.55,-129.21 -1.6,-190.64 43.34,-407.59 9.41,-45.44 10.26,-105.66 10.26,-199.05 0,-297.82 -20.35,-1054.93 -20.9,-1110.4 C 2056.88,929.773 2056.2,691.668 2053.1,456.117 2050,220.57 1958.05,85.7227 1851.27,59.0781 1784.22,42.3477 1733.68,84.3594 1727.49,190.242 1722.83,82.8164 1745.98,-4.82031 1876.2,0.207031 2039.46,6.36328 2055.6,162.93 2227.41,232.332 c 161.59,65.281 197.82,80.258 265.78,195.887 -161.49,-154.328 -257.03,61.773 -254.08,258.972 1.16,77.418 3.03,246.188 6.14,478.639 2.32,174.34 13.41,209.25 131.45,209.31 11.01,0 42.04,-0.64 57.26,-1.01 239.45,-5.63 353.29,9.35 356.08,347.33 1.87,223.99 19.44,586.26 21.76,829.95 2.23,233.8 -105.4,467.29 -294.44,479.21 -37.61,2.37 -90.96,3.56 -132.85,0.98 -120.69,-7.44 -163.94,-49.45 -264.77,-18.53 -96.08,29.47 -118.32,107.47 -89.85,213.82 z m 405.29,-241.91 c 136.37,0.62 169.91,-186.76 169.71,-336.16 -0.34,-270.87 -12.5,-741.13 -21.19,-941.74 -5.95,-139.93 -43.15,-238.48 -141.23,-241.91 -38.9,-1.36 -149.92,1.4 -182.17,-49.28 -7.46,82.59 -1.27,217.12 -1.73,291.19 -1.25,201.85 13.44,667.38 17.36,923.81 2.12,141.79 16.15,353.46 159.25,354.09"/>
      <path id="path20" style="fill:#000000;fill-opacity:1;fill-rule:evenodd;stroke:none" d="m 3167.76,4069.3 c -26.3,-241.07 -186.71,-227.94 -283.14,-324.37 -96.43,-96.43 -92.07,-197.22 -65.78,-258.59 -8.76,43.83 -17.5,56.91 35.1,127.04 52.6,70.13 131.45,0.07 131.45,-65.67 0,-65.75 -6.12,-472.59 -19.27,-945.97 -1.07,-38.44 -24.45,-1022.37 -24.16,-1107.71 0,0 1.83,-148 -9.44,-197.26 -34.27,-149.93 -264.43,-89.6 -180.56,46.18 -42.21,-102.41 -39.04,-97.88 -5.35,-150.88 47.16,-74.16 192.3,-94.6 258.05,-33.24 65.75,61.37 118.39,114.01 236.73,114 -112.31,15.49 -108.31,188.94 -105.85,223.4 0,0 4.33,666.91 8.25,923.34 2.14,142.91 15.58,355.79 159.25,354.09 136.36,-1.59 182.14,-186.76 181.99,-336.16 -0.35,-323.46 -3.44,-978.4 -16.59,-1120.85 -13.15,-142.45 -133.73,-170.91 -114,-241.04 0,46.02 68.79,69.9 111.79,59.16 73.5,-18.37 58.72,-277.622 184.09,-309.028 146.45,-36.687 199.41,30.668 225.71,181.888 -32.87,-118.349 -83.29,-151.22 -140.28,-138.071 -75.01,17.312 -71.95,138.981 -73.05,212.851 -4,268.09 14.64,1020.22 16.96,1263.91 2.23,233.81 -105.4,454.91 -294.45,466.84 -53.61,3.38 -177.08,1.83 -177.12,1.82 -60.13,2.54 -61.43,85.31 -61.43,141.81 0,65.75 3.56,726.79 21.1,1112.51"/>
      <path id="path22" style="fill:#000000;fill-opacity:1;fill-rule:evenodd;stroke:none" d="m 4958.2,3214.52 c 0,0 -127.03,-138.88 -278.25,-176.14 129.3,13.16 92.99,-51.33 93.29,-162.23 0.08,-28.78 -15.35,-804.98 -15.92,-961.87 -0.56,-156.9 36.01,-498.17 -135.19,-492.73 -99.42,3.15 -98.57,147.69 -98.56,246.99 0.01,85.34 -6.33,314.44 2.01,951.71 1.08,82.7 15.05,160.6 20.23,185.62 44.94,216.96 124.99,278.39 43.44,407.59 24.33,-90.88 4.77,-171.08 -63.5,-198.18 -114.11,-45.3 -161.21,4.86 -258.09,13.42 -16.54,2.89 -122.42,5.3 -176.03,1.92 -189.05,-11.92 -296.59,-115.23 -294.36,-479.21 2.05,-243.69 -13.88,-667.32 -15.06,-891.31 -1.6,-305.11 102.71,-324.18 320.54,-324.18 123.36,0 148.64,75.1 248.23,72.11 101.31,-3.05 91.13,-80.56 224.46,-85.05 116.1,-3.84 124.4,60.69 196.27,60.69 71.92,0 103.64,-31.41 128.09,-79.29 27.12,-53.1 61.27,-85.91 80.35,-94.25 -26.29,38.65 -45.61,90.29 -41.23,193.29 4.39,103.01 13.19,166.6 6.62,420.83 -6.58,254.21 14.25,661.04 16.39,803.96 2.15,142.91 15.59,355.79 159.27,354.08 136.35,-1.58 182.14,-186.75 181.98,-336.15 -0.35,-323.47 -9.96,-1438.21 -12.66,-1554.33 -3.52,-151.185 36.81,-244.33 135,-272.205 108.03,-30.671 183.21,3.481 197.32,81.497 -13.54,-46.348 -60.43,-40.868 -93.48,-19.27 -38.77,25.324 -47.41,83.754 -48.52,157.628 -3.99,268.08 14.65,1271.81 16.98,1515.49 2.22,233.81 -105.41,454.92 -294.46,466.85 -53.61,3.38 -190.3,4.02 -238.55,-44.2 -14.11,66.08 -13.19,119.05 -6.61,236.92 z m -784.31,-229.54 c 143.68,0 157.11,-211.18 159.26,-354.09 3.91,-256.43 -21.63,-783.33 -19.56,-985.18 1.09,-106.61 -83.45,-207.47 -175.08,-204.6 -126.43,3.95 -144.01,64.68 -149.96,204.6 -8.68,200.61 15.97,732.24 15.63,1003.11 -0.19,148.82 14.93,336.15 169.71,336.16"/>
      <path id="path24" style="fill:#000000;fill-opacity:1;fill-rule:evenodd;stroke:none" d="m 5855.16,3586.15 c -32.87,-232.3 -157.36,-251.92 -284.77,-353.51 -106.62,-85.02 -104.34,-154.27 -78.04,-215.64 -8.77,43.84 -5.11,94.11 35.09,127.05 67.81,55.56 131.45,0.06 131.45,-65.68 0,-65.75 8.6,-1423.03 7.39,-1547.04 -1.55,-158.07 102.27,-220.05 229.35,-220.05 127.07,0 148.83,104.52 223.11,108.54 57.34,3.1 111.06,-33.37 166.64,-70.95 68.19,-46.1 116.99,-48.44 182.08,-46.89 130.17,3.1 203.24,54.21 237.11,113.14 97.08,168.86 17.23,350.97 -33.75,485.83 -70.75,187.15 -244.41,462.14 -333.13,674.84 -69.58,166.81 -60.66,298.76 8.34,358.79 67.57,58.79 185.79,47.86 259.82,-35.52 108.26,-121.92 54.83,-248.05 -30.26,-285.66 66.65,13.64 114.16,74.29 135.97,183.24 5.97,58.21 -2.49,134.81 -83.35,217.25 -80.85,82.44 -223.53,87.24 -296.46,66.63 -128.2,-36.23 -165.27,-87.48 -199.97,-151.92 -35.05,-65.08 -62.78,-168.72 9.38,-363 77.52,-208.71 302.3,-587.52 352.76,-719.21 50.36,-131.4 79.73,-341.1 -18.7,-420.43 -68.15,-54.94 -187.86,-59.07 -260.22,22.43 -105.27,118.57 -17.3,265.75 31.93,282.08 -58.73,-10.52 -120.18,-63.54 -141.42,-169.61 -24.94,-124.55 -76.5,-141.97 -135.38,-145.07 -58.89,-3.1 -111.27,32.88 -117.84,177.57 0,0 -0.1,1341.07 -0.1,1439.66 0,99.68 134.69,254.59 293.4,184.66 -14.68,29.56 -118.56,72.3 -231.16,41.23 -54.91,-15.16 -61.77,10.78 -60.71,42.94 l 1.44,284.3"/>
      <path id="path26" style="fill:#000000;fill-opacity:1;fill-rule:evenodd;stroke:none" d="m 8309.91,4137.66 c -48.15,-235.21 -189.59,-346.29 -353.61,-438.08 130.55,48.99 163.92,-52.78 157.72,-220.14 -3.25,-87.88 -4.83,-350.15 -6.23,-615.37 -27.97,6.79 -58.65,14.14 -95.02,17.36 -16.54,2.89 -122.42,5.3 -176.04,1.91 -189.04,-11.92 -296.57,-115.23 -294.35,-479.21 2.05,-243.68 -13.88,-661.18 -15.05,-885.17 -1.6,-305.11 102.71,-324.17 320.53,-324.17 123.36,0 148.64,75.09 248.23,72.1 101.31,-3.05 91.13,-80.55 224.46,-85.05 116.09,-3.84 124.4,60.7 196.27,60.7 71.92,0 103.64,-31.41 128.09,-79.3 27.12,-53.1 61.27,-85.9 80.35,-94.25 -26.3,38.65 -45.61,90.3 -41.22,193.3 4.38,103 13.19,221.82 6.61,476.05 -6.57,254.21 14.25,599.68 16.4,742.59 2.14,142.91 9.44,355.79 153.12,354.09 136.36,-1.59 151.97,-139.3 151.97,-288.7 0,-226.37 -6.46,-278.34 -27.62,-305.66 -12.78,-16.51 -36.94,-24.54 -60.4,-10.46 11.27,-10.8 16.87,-37.04 78.14,-38.54 57.1,1.5 103.08,39.44 128.01,84.95 23.28,42.52 39.14,115.44 95.68,115.44 64.36,0 75.81,-42.67 77.86,-114.39 0,-0.03 -8.58,-412.5 -8.73,-516.6 -0.42,-285.04 45.61,-523.33 220.72,-566.18 158.88,-38.87 228.39,-9.44 318.33,49 68.79,44.7 141.76,-49.9 204.27,-37.59 -5.8,0.75 -98.1,15.19 -73.01,166.16 24.02,144.57 16.41,210.49 -96.36,355.53 135.57,-260.37 -39.95,-433.85 -220.15,-435.1 -140.2,-1.01 -184.05,91.02 -170.57,459.93 45.47,-23.28 96.2,-36.48 148.04,-37.2 170.55,-2.36 329.54,81.52 340.76,323.41 9.65,207.77 10.84,254.28 8.73,480.55 -2.32,247.79 -134.3,357.32 -310.18,359.08 -40.65,0.4 -42.68,0.42 -73.16,-1.25 -154.12,-8.44 -260.83,-84.96 -278.82,-311.04 0,0 -1.67,-26.13 -2.11,-39.5 0,-0.02 0.01,-0.08 0,-0.09 0,-0.04 -0.08,-0.16 -0.09,-0.2 0,-0.02 0,-0.08 0,-0.09 0,-0.02 0,-0.09 0,-0.1 -1.82,-42.93 -29.46,-66.21 -69.32,-65.2 -40.57,1 -53.7,53.67 -53.7,102.31 0,228.95 -57.08,299.11 -246.12,311.03 -53.61,3.39 -184.17,4.02 -232.42,-44.2 -14.11,66.09 -13.19,119.06 -6.62,236.93 0,0 -127.02,-138.88 -278.24,-176.14 129.3,13.15 92.99,-51.33 93.29,-162.23 0.08,-28.78 -15.35,-743.62 -15.91,-900.51 -0.57,-156.9 36,-553.4 -135.2,-547.96 -99.41,3.16 -98.57,147.7 -98.56,246.99 0,17.17 3.11,207.78 2.3,272.49 -7.03,570.49 -5.66,1844.68 38.93,2337.77 z M 7915.84,2837.71 c 0.52,0.01 1,-0.01 1.53,0 144.73,0 158.74,-211.18 160.89,-354.09 3.91,-256.43 -21.62,-777.2 -19.56,-979.04 1.09,-106.62 -83.45,-207.48 -175.08,-204.61 -126.43,3.96 -144.01,64.68 -149.96,204.61 -8.68,200.61 15.97,726.1 15.63,996.97 -0.19,148.24 32.84,331.75 166.55,336.16 z m 1706.58,-8.06 c 0.45,0.01 0.9,-0.01 1.34,0 116.36,-1.34 151.94,-143.95 151.78,-266.83 -0.28,-222.79 -2.28,-426.61 -7.28,-591.68 -4.9,-161.59 -79.36,-209.93 -159.93,-205.19 -92.03,5.41 -119.77,85.83 -120.53,207.68 -1.03,166.02 0.81,371.17 4.03,582.09 1.74,115.71 17.37,270.48 130.59,273.93"/>
      <path id="path28" style="fill:#000000;fill-opacity:1;fill-rule:evenodd;stroke:none" d="m 11252.1,3073.38 c 0,0 -127.1,-138.88 -278.3,-176.13 129.3,13.15 93.1,-51.34 93.4,-162.23 0,-28.79 -15.5,-663.85 -16.1,-820.74 -0.5,-156.9 36.1,-498.17 -135.1,-492.73 -99.4,3.15 -98.5,147.69 -98.5,246.99 0,85.34 -4.1,653.89 -4.1,951.71 0,95.53 21.1,160.6 26.3,185.62 45,216.96 124.9,278.39 43.4,407.59 24.3,-90.88 -4.4,-181.6 -95.6,-209.5 -72.5,-22.15 -129,16.18 -225.9,24.74 -16.6,2.89 -122.5,5.3 -176.1,1.92 -189,-11.92 -296.5,-115.23 -294.3,-479.21 2,-243.69 -13.9,-667.32 -15.1,-891.31 -1.6,-305.11 102.7,-324.18 320.6,-324.18 123.3,0 148.6,75.1 248.2,72.11 101.3,-3.05 91.1,-80.56 224.5,-85.05 116,-3.84 124.4,60.69 196.2,60.69 71.9,0 103.7,-31.41 128.1,-79.29 27.1,-53.1 61.3,-85.91 80.4,-94.25 -26.3,38.65 -45.6,90.29 -41.3,193.29 4.4,103.01 13.2,166.6 6.7,420.83 -6.6,254.21 14.2,519.91 16.3,662.82 2.2,142.91 15.6,355.79 159.3,354.09 136.4,-1.59 182.2,-186.76 182,-336.16 -0.2,-206.3 -19.1,-1205.68 -20.1,-1308.78 -1.1,-104.42 -26,-151.6 -54.3,-161.94 22,1.6 52.7,24.58 86.3,58.49 59.8,60.44 94.1,76.17 165.9,71.34 1.9,29 8.9,455.46 12.8,735.84 3.9,280.38 4.8,451.49 4.8,587.31 0,142.93 15.6,355.79 159.3,354.09 136.3,-1.59 182.1,-186.76 181.9,-336.16 -0.3,-323.46 -9.9,-1076.15 -12.6,-1192.28 -3.5,-151.18 55.2,-250.46 153.4,-278.34 108.4,-30.79 284.4,-37.433 315.9,144.01 -41.1,-147.9 -178.8,-103.53 -212.1,-81.78 -38.7,25.32 -65.8,89.89 -66.9,163.76 -4,268.08 14.7,909.76 17,1153.45 2.2,233.81 -105.4,454.92 -294.5,466.84 -53.6,3.38 -169,17.93 -238.5,-44.2 -71,-63.42 -116,-39.97 -159.3,-10.07 -53,36.58 -88.2,50.88 -138.8,54.08 -53.6,3.38 -190.3,4.02 -238.6,-44.2 -14.1,66.09 -13.2,119.06 -6.6,236.92 z m -787.5,-88.4 c 0.6,0.02 1,-0.01 1.6,0 145.6,1.84 158.7,-211.18 160.9,-354.09 3.9,-256.43 -21.7,-783.33 -19.6,-985.18 1.1,-106.61 -83.4,-207.47 -175.1,-204.6 -126.4,3.95 -144,64.68 -149.9,204.6 -8.7,200.61 15.9,732.24 15.6,1003.11 -0.2,148.23 32.8,331.75 166.5,336.16"/>
    </g>
  </g>
</svg>
